<svg width="32" height="32" viewBox="0 0 32 32" fill="none" xmlns="http://www.w3.org/2000/svg">
<path d="M14 20.6667L12.6667 16" stroke="#222222" stroke-linecap="round"/>
<path d="M11.3333 8.66666L8.66666 12.6667M20.6667 8.66666L23.3333 12.6667" stroke="#222222" stroke-linecap="round"/>
<path d="M18 20.6667L19.3333 16" stroke="#222222" stroke-linecap="round"/>
<path d="M6 12.6667C6.77905 12.6667 7.45357 13.2077 7.62257 13.9683L9.07192 20.4903C9.51684 22.4925 9.73931 23.4936 10.4705 24.0801C11.2017 24.6667 12.2272 24.6667 14.2783 24.6667H17.7217C19.7728 24.6667 20.7983 24.6667 21.5295 24.0801C22.2607 23.4936 22.4832 22.4925 22.9281 20.4903L24.3775 13.9683C24.5464 13.2077 25.2209 12.6667 26 12.6667" stroke="#222222" stroke-linecap="round"/>
<path d="M4.66666 12.6667H27.3333" stroke="#222222" stroke-linecap="round"/>
</svg>
